solid OpenSCAD_Model
  facet normal -1 0 0
    outer loop
      vertex -20 -20 0
      vertex -20 -20 30
      vertex -20 20.1 0
    endloop
  endfacet
  facet normal -1 0 0
    outer loop
      vertex -20 20.1 0
      vertex -20 -20 30
      vertex -20 0 30
    endloop
  endfacet
  facet normal -1 0 0
    outer loop
      vertex -20 20.1 0
      vertex -20 0 30
      vertex -20 0 38
    endloop
  endfacet
  facet normal -1 0 0
    outer loop
      vertex -20 20.1 0
      vertex -20 0 38
      vertex -20 20.1 38
    endloop
  endfacet
  facet normal 0 -1 0
    outer loop
      vertex -20 -20 30
      vertex -20 -20 0
      vertex 20.1 -20 0
    endloop
  endfacet
  facet normal 0 -1 0
    outer loop
      vertex 0.1 -20 18
      vertex -20 -20 30
      vertex 20.1 -20 0
    endloop
  endfacet
  facet normal 0 -1 0
    outer loop
      vertex 20.1 -20 18
      vertex 0.1 -20 18
      vertex 20.1 -20 0
    endloop
  endfacet
  facet normal 0 -1 0
    outer loop
      vertex 0.1 -20 18
      vertex 0.1 -20 30
      vertex -20 -20 30
    endloop
  endfacet
  facet normal 0 0 -1
    outer loop
      vertex -20 -20 0
      vertex -20 20.1 0
      vertex 20.1 -20 0
    endloop
  endfacet
  facet normal 0 0 -1
    outer loop
      vertex 20.1 -20 0
      vertex -20 20.1 0
      vertex 20.1 20.1 0
    endloop
  endfacet
  facet normal 0 1 0
    outer loop
      vertex -20 20.1 0
      vertex -20 20.1 38
      vertex 20.1 20.1 0
    endloop
  endfacet
  facet normal 0 1 0
    outer loop
      vertex 0.1 20.1 33
      vertex -20 20.1 38
      vertex 0.1 20.1 38
    endloop
  endfacet
  facet normal 0 1 0
    outer loop
      vertex 20.1 20.1 0
      vertex -20 20.1 38
      vertex 0.1 20.1 33
    endloop
  endfacet
  facet normal 0 1 0
    outer loop
      vertex 20.1 20.1 33
      vertex 20.1 20.1 0
      vertex 0.1 20.1 33
    endloop
  endfacet
  facet normal 0 0 1
    outer loop
      vertex -20 20.1 38
      vertex -20 0 38
      vertex 0.1 0 38
    endloop
  endfacet
  facet normal 0 0 1
    outer loop
      vertex 0.1 20.1 38
      vertex -20 20.1 38
      vertex 0.1 0 38
    endloop
  endfacet
  facet normal 0 -1 0
    outer loop
      vertex -20 0 38
      vertex -20 0 30
      vertex 0.1 0 30
    endloop
  endfacet
  facet normal 0 -1 0
    outer loop
      vertex 0.1 0 33
      vertex -20 0 38
      vertex 0.1 0 30
    endloop
  endfacet
  facet normal 0 -1 0
    outer loop
      vertex 0.1 0 18
      vertex 20.1 0 18
      vertex 0.1 0 30
    endloop
  endfacet
  facet normal 0 -1 0
    outer loop
      vertex 20.1 0 18
      vertex 20.1 0 33
      vertex 0.1 0 30
    endloop
  endfacet
  facet normal 0 -1 0
    outer loop
      vertex 20.1 0 33
      vertex 0.1 0 33
      vertex 0.1 0 30
    endloop
  endfacet
  facet normal 0 -1 0
    outer loop
      vertex 0.1 0 33
      vertex 0.1 0 38
      vertex -20 0 38
    endloop
  endfacet
  facet normal 0 0 1
    outer loop
      vertex -20 0 30
      vertex -20 -20 30
      vertex 0.1 -20 30
    endloop
  endfacet
  facet normal 0 0 1
    outer loop
      vertex 0.1 0 30
      vertex -20 0 30
      vertex 0.1 -20 30
    endloop
  endfacet
  facet normal 1 0 0
    outer loop
      vertex 0.1 -20 30
      vertex 0.1 -20 18
      vertex 0.1 0 18
    endloop
  endfacet
  facet normal 1 0 0
    outer loop
      vertex 0.1 0 30
      vertex 0.1 -20 30
      vertex 0.1 0 18
    endloop
  endfacet
  facet normal 0 0 1
    outer loop
      vertex 0.1 0 18
      vertex 0.1 -20 18
      vertex 20.1 -20 18
    endloop
  endfacet
  facet normal 0 0 1
    outer loop
      vertex 20.1 0 18
      vertex 0.1 0 18
      vertex 20.1 -20 18
    endloop
  endfacet
  facet normal 1 0 0
    outer loop
      vertex 20.1 -20 18
      vertex 20.1 -20 0
      vertex 20.1 20.1 0
    endloop
  endfacet
  facet normal 1 0 0
    outer loop
      vertex 20.1 0 18
      vertex 20.1 -20 18
      vertex 20.1 20.1 0
    endloop
  endfacet
  facet normal 1 0 0
    outer loop
      vertex 20.1 20.1 33
      vertex 20.1 0 18
      vertex 20.1 20.1 0
    endloop
  endfacet
  facet normal 1 0 0
    outer loop
      vertex 20.1 0 33
      vertex 20.1 0 18
      vertex 20.1 20.1 33
    endloop
  endfacet
  facet normal 0 0 1
    outer loop
      vertex 0.1 20.1 33
      vertex 0.1 0 33
      vertex 20.1 0 33
    endloop
  endfacet
  facet normal 0 0 1
    outer loop
      vertex 20.1 20.1 33
      vertex 0.1 20.1 33
      vertex 20.1 0 33
    endloop
  endfacet
  facet normal 1 0 0
    outer loop
      vertex 0.1 0 38
      vertex 0.1 0 33
      vertex 0.1 20.1 33
    endloop
  endfacet
  facet normal 1 0 0
    outer loop
      vertex 0.1 20.1 38
      vertex 0.1 0 38
      vertex 0.1 20.1 33
    endloop
  endfacet
endsolid OpenSCAD_Model
